<svg width="201" height="200" viewBox="0 0 201 200" fill="none" xmlns="http://www.w3.org/2000/svg">
<circle cx="100.5" cy="100" r="100" fill="#FEF2F2"/>
<path fill-rule="evenodd" clip-rule="evenodd" d="M124.375 154.167C115.437 154.167 110.969 154.167 108.195 151.388C105.417 148.615 105.417 144.146 105.417 135.208C105.417 126.271 105.417 121.802 108.195 119.029C110.969 116.25 115.437 116.25 124.375 116.25C133.312 116.25 137.781 116.25 140.554 119.029C143.333 121.802 143.333 126.271 143.333 135.208C143.333 144.146 143.333 148.615 140.554 151.388C137.781 154.167 133.312 154.167 124.375 154.167ZM118.184 124.548C117.591 123.956 116.787 123.623 115.949 123.623C115.111 123.623 114.307 123.956 113.715 124.548C113.122 125.141 112.789 125.945 112.789 126.783C112.789 127.621 113.122 128.424 113.715 129.017L119.906 135.208L113.715 141.4C113.421 141.693 113.189 142.041 113.03 142.425C112.871 142.808 112.789 143.219 112.789 143.634C112.789 144.049 112.871 144.46 113.03 144.843C113.189 145.227 113.421 145.575 113.715 145.868C114.008 146.162 114.357 146.395 114.74 146.553C115.123 146.712 115.534 146.794 115.949 146.794C116.364 146.794 116.775 146.712 117.158 146.553C117.542 146.395 117.89 146.162 118.184 145.868L124.375 139.677L130.566 145.868C130.86 146.162 131.208 146.395 131.591 146.553C131.975 146.712 132.386 146.794 132.8 146.794C133.215 146.794 133.626 146.712 134.01 146.553C134.393 146.395 134.741 146.162 135.035 145.868C135.328 145.575 135.561 145.227 135.72 144.843C135.879 144.46 135.96 144.049 135.96 143.634C135.96 143.219 135.879 142.808 135.72 142.425C135.561 142.041 135.328 141.693 135.035 141.4L128.844 135.208L135.035 129.017C135.627 128.424 135.96 127.621 135.96 126.783C135.96 125.945 135.627 125.141 135.035 124.548C134.442 123.956 133.639 123.623 132.8 123.623C131.962 123.623 131.159 123.956 130.566 124.548L124.375 130.74L118.184 124.548Z" fill="#EF4444"/>
<path d="M99.9998 89.1666C105.746 89.1666 111.257 86.8839 115.32 82.8206C119.384 78.7573 121.667 73.2463 121.667 67.4999C121.667 61.7536 119.384 56.2426 115.32 52.1793C111.257 48.116 105.746 45.8333 99.9998 45.8333C94.2535 45.8333 88.7425 48.116 84.6792 52.1793C80.6159 56.2426 78.3332 61.7536 78.3332 67.4999C78.3332 73.2463 80.6159 78.7573 84.6792 82.8206C88.7425 86.8839 94.2535 89.1666 99.9998 89.1666ZM119.922 108.141C117.36 108.168 114.972 108.266 112.892 108.542C109.409 109.013 105.595 110.129 102.448 113.282C99.2957 116.429 98.1798 120.242 97.714 123.725C97.2915 126.856 97.2915 130.68 97.2915 134.742V135.674C97.2915 139.737 97.2915 143.561 97.714 146.692C98.039 149.135 98.689 151.74 100.135 154.167H99.9998C56.6665 154.167 56.6665 143.252 56.6665 129.792C56.6665 116.331 76.069 105.417 99.9998 105.417C107.182 105.417 113.959 106.397 119.922 108.141Z" fill="#EF4444"/>
</svg>
