<svg width="201" height="200" viewBox="0 0 201 200" fill="none" xmlns="http://www.w3.org/2000/svg">
<circle cx="100.5" cy="100" r="100" fill="#ECFDF5"/>
<path d="M122.667 68C122.667 73.7464 120.384 79.2574 116.32 83.3207C112.257 87.384 106.746 89.6667 101 89.6667C95.2535 89.6667 89.7425 87.384 85.6792 83.3207C81.6159 79.2574 79.3332 73.7464 79.3332 68C79.3332 62.2537 81.6159 56.7427 85.6792 52.6794C89.7425 48.6161 95.2535 46.3334 101 46.3334C106.746 46.3334 112.257 48.6161 116.32 52.6794C120.384 56.7427 122.667 62.2537 122.667 68ZM120.922 108.641C118.36 108.668 115.972 108.766 113.892 109.042C110.409 109.513 106.595 110.629 103.448 113.782C100.296 116.929 99.1798 120.742 98.714 124.225C98.2915 127.356 98.2915 131.18 98.2915 135.243V136.174C98.2915 140.237 98.2915 144.061 98.714 147.192C99.039 149.635 99.689 152.24 101.135 154.667H101C57.6665 154.667 57.6665 143.752 57.6665 130.292C57.6665 116.831 77.069 105.917 101 105.917C108.182 105.917 114.959 106.897 120.922 108.641Z" fill="#34D399"/>
<path fill-rule="evenodd" clip-rule="evenodd" d="M125.375 154.667C116.437 154.667 111.969 154.667 109.195 151.888C106.417 149.115 106.417 144.646 106.417 135.708C106.417 126.771 106.417 122.302 109.195 119.529C111.969 116.75 116.437 116.75 125.375 116.75C134.312 116.75 138.781 116.75 141.554 119.529C144.333 122.302 144.333 126.771 144.333 135.708C144.333 144.646 144.333 149.115 141.554 151.888C138.781 154.667 134.312 154.667 125.375 154.667ZM136.035 131.624C136.627 131.032 136.96 130.228 136.96 129.39C136.96 128.552 136.627 127.748 136.035 127.155C135.442 126.563 134.639 126.23 133.8 126.23C132.962 126.23 132.159 126.563 131.566 127.155L121.166 137.555L119.184 135.578C118.89 135.285 118.542 135.052 118.158 134.893C117.775 134.735 117.364 134.653 116.949 134.653C116.534 134.653 116.123 134.735 115.74 134.893C115.357 135.052 115.008 135.285 114.715 135.578C114.421 135.872 114.189 136.22 114.03 136.603C113.871 136.987 113.789 137.398 113.789 137.813C113.789 138.228 113.871 138.639 114.03 139.022C114.189 139.405 114.421 139.754 114.715 140.047L118.929 144.261C119.222 144.555 119.571 144.788 119.954 144.947C120.337 145.106 120.748 145.188 121.163 145.188C121.578 145.188 121.989 145.106 122.373 144.947C122.756 144.788 123.104 144.555 123.398 144.261L136.035 131.624Z" fill="#34D399"/>
</svg>
